<svg xmlns="http://www.w3.org/2000/svg" xmlns:xlink="http://www.w3.org/1999/xlink" viewBox="0 0 936.78 122.61"><defs><style>.cls-1{fill:none;}.cls-2{clip-path:url(#clip-path);}.cls-3{fill:#fff;}.cls-4{fill:#f05323;}</style><clipPath id="clip-path" transform="translate(-41.3 -39.31)"><rect class="cls-1" width="1019.62" height="212.37"/></clipPath></defs><g id="Layer_2" data-name="Layer 2"><g id="ORANGE"><g class="cls-2"><path class="cls-3" d="M894.16,160.5c-19.23,0-28.18-11.41-28.18-35.93V47.06c0-.07.09-7.75,7.75-7.75s7.75,7.68,7.75,7.75V60.44h13.39c.08,0,7.75.11,7.75,7.76S895,76,894.87,76H881.48v48.62c0,20.43,7.63,20.43,12.68,20.43h7.05c.08,0,7.75.09,7.75,7.75s-7.67,7.74-7.75,7.74Z" transform="translate(-41.3 -39.31)"/><path class="cls-3" d="M734.35,160.51a27.91,27.91,0,0,1-14-3.3,7.09,7.09,0,0,1-6.45,3.3c-7.66,0-7.76-7.68-7.76-7.76V47.06c0-.07.1-7.75,7.76-7.75s7.75,7.68,7.75,7.75v16a28.7,28.7,0,0,1,12.67-2.6h14.1c24.36,0,27.48,19.21,27.48,35.94v28.18c0,16.73-3.12,35.94-27.48,35.94Zm0-84.55c-6.52,0-12.67,0-12.67,20.43v28.18c0,20.43,6.15,20.43,12.67,20.43h14.1c6.42,0,12,0,12-20.43V96.39c0-20.43-5.56-20.43-12-20.43Z" transform="translate(-41.3 -39.31)"/><path class="cls-3" d="M587,161.91c-7.67,0-7.75-7.66-7.75-7.75V96.39c0-24.18,9.44-35.94,28.88-35.94h7c.08,0,7.75.1,7.75,7.75S615.23,76,615.15,76h-7c-6.57,0-13.38,0-13.38,20.43v57.77c0,.09-.09,7.75-7.75,7.75" transform="translate(-41.3 -39.31)"/><path class="cls-3" d="M924.53,160.5c-.08,0-7.76-.08-7.76-7.74a7,7,0,0,1,3.92-6.8,9.38,9.38,0,0,1,3.84-1h24.66A13.35,13.35,0,0,0,955,119.63l-22.45-10.34a25.35,25.35,0,0,1,9.55-48.84h24.67c.07,0,7.74.1,7.74,7.75a7,7,0,0,1-3.92,6.8,9.24,9.24,0,0,1-3.82,1H942.14a9.86,9.86,0,0,0-3.93,18.91l19.93,9.44a28.8,28.8,0,0,1-8.95,56.2Z" transform="translate(-41.3 -39.31)"/><path class="cls-3" d="M268.37,160.5c-.08,0-7.75-.08-7.75-7.74a7,7,0,0,1,3.91-6.8,9.41,9.41,0,0,1,3.84-1H293a13.35,13.35,0,0,0,5.86-25.37l-22.45-10.34A25.35,25.35,0,0,1,286,60.45h24.66c.09,0,7.75.1,7.75,7.75,0,4-2.12,5.91-3.91,6.8a9.27,9.27,0,0,1-3.84,1H286a9.86,9.86,0,0,0-3.92,18.91L302,104.3a28.8,28.8,0,0,1-9,56.2Z" transform="translate(-41.3 -39.31)"/><path class="cls-3" d="M201.36,160.5c-.08,0-7.75-.08-7.75-7.74a7,7,0,0,1,3.92-6.8,9.35,9.35,0,0,1,3.83-1H226a13.35,13.35,0,0,0,5.86-25.37l-22.45-10.34A25.35,25.35,0,0,1,219,60.45h24.66c.08,0,7.75.1,7.75,7.75a7,7,0,0,1-3.92,6.8,9.24,9.24,0,0,1-3.83,1H219a9.86,9.86,0,0,0-3.93,18.91L235,104.3a28.8,28.8,0,0,1-9,56.2Z" transform="translate(-41.3 -39.31)"/><path class="cls-3" d="M438.68,160.49a7.76,7.76,0,0,1-7.19-5.85L410.35,70.08a7.76,7.76,0,0,1,5.64-9.4,8,8,0,0,1,1.89-.23,7.74,7.74,0,0,1,7.51,5.88l14.68,58.73,19.77-59.31a7.75,7.75,0,0,1,14.7,0l19.77,59.31L509,66.33a7.75,7.75,0,0,1,7.51-5.88,8.1,8.1,0,0,1,1.9.23,7.76,7.76,0,0,1,5.63,9.4l-21.14,84.56a7.8,7.8,0,0,1-7.21,5.87h0a7.81,7.81,0,0,1-7.62-5.3L467.19,92.72l-20.83,62.49a7.59,7.59,0,0,1-7.12,5.31Z" transform="translate(-41.3 -39.31)"/><path class="cls-3" d="M98.38,161.91a7.69,7.69,0,0,1-6.21-3.09l-32.42-43a10.24,10.24,0,0,1-.24-10.37l28.89-43A7.73,7.73,0,0,1,94.85,59a7.62,7.62,0,0,1,4.29,1.32,7.74,7.74,0,0,1,2.15,10.74L75.44,110.22l30.31,40.47a7.67,7.67,0,0,1,1.46,5.74,6.1,6.1,0,0,1-3.46,4.67,12.07,12.07,0,0,1-5.37.81" transform="translate(-41.3 -39.31)"/><path class="cls-3" d="M49.05,161.91c-4.27,0-7.75-2.15-7.75-6.43V47.07a7.75,7.75,0,0,1,15.5,0V155.48c0,4.28-3.48,6.43-7.75,6.43" transform="translate(-41.3 -39.31)"/><path class="cls-3" d="M155.5,60.45V76c6.53,0,12.68,0,12.68,20.43v28.18C168.18,145,162,145,155.5,145H141.42c-6.53,0-12.69,0-12.69-20.43h-15.5c0,24.51,9,35.94,28.19,35.94H155.5a28,28,0,0,0,14-3.3,7.06,7.06,0,0,0,6.44,3.3c7.66,0,7.76-7.69,7.76-7.76V96.39c0-24.52-9-35.94-28.19-35.94" transform="translate(-41.3 -39.31)"/><path class="cls-3" d="M374.13,60.45V76c6.52,0,12.68,0,12.68,20.43v28.18c0,20.43-6.16,20.43-12.68,20.43H360c-6.52,0-12.68,0-12.68-20.43h-15.5c0,24.51,9,35.94,28.18,35.94h14.1c19.22,0,28.18-11.43,28.18-35.94V96.39c0-24.52-9-35.94-28.18-35.94" transform="translate(-41.3 -39.31)"/><path class="cls-3" d="M668.07,60.45V76c6.52,0,12.67,0,12.67,20.43v28.18c0,20.43-6.15,20.43-12.67,20.43H654c-6.52,0-12.68,0-12.68-20.43h-15.5c0,24.51,9,35.94,28.18,35.94h14.1c19.22,0,28.18-11.43,28.18-35.94V96.39c0-24.52-9-35.94-28.18-35.94" transform="translate(-41.3 -39.31)"/><path class="cls-3" d="M827.87,60.45V76c6.52,0,12.68,0,12.68,20.43v28.18c0,20.43-6.16,20.43-12.68,20.43H813.78c-6.52,0-12.69,0-12.69-20.43h-15.5c0,24.51,9,35.94,28.19,35.94h14.09c19.22,0,28.18-11.43,28.18-35.94V96.39c0-24.52-9-35.94-28.18-35.94" transform="translate(-41.3 -39.31)"/><path class="cls-4" d="M801.08,96.39C801.08,76,807.24,76,813.76,76h14.1V60.45h-14.1c-19.22,0-28.19,11.42-28.19,35.94v28.18h15.51Z" transform="translate(-41.3 -39.31)"/><path class="cls-4" d="M641.27,96.39C641.27,76,647.44,76,654,76h14.1V60.45H654c-19.22,0-28.18,11.42-28.18,35.94v28.18h15.5Z" transform="translate(-41.3 -39.31)"/><path class="cls-4" d="M347.33,96.39C347.33,76,353.49,76,360,76h14.1V60.45H360c-19.22,0-28.18,11.42-28.18,35.94v28.18h15.5Z" transform="translate(-41.3 -39.31)"/><path class="cls-4" d="M128.71,96.39C128.71,76,134.87,76,141.39,76h14.1V60.45h-14.1c-19.22,0-28.18,11.42-28.18,35.94v28.18h15.5Z" transform="translate(-41.3 -39.31)"/></g></g></g></svg>